# xmcd
#
# Track frame offsets:
#	150
#	10844
#	22394
#	32216
#	44618
#	54036
#	64845
#	76287
#	84312
#	93150
#
# Disc length: 1398 seconds
#
# Revision: 1
# Processed by: cddbd v1.5.2PL0 Copyright (c) Steve Scherf et al.
# Submitted via: audiograbber 1.83.01
#
DISCID=7405740a
DTITLE=Jean Shepard - Just Like Walkin' In The Sunshine
DYEAR=1972
DGENRE=Country
TTITLE0=Just Like Walkin' In The Sunshine
TTITLE1=I've Loved Him Longer Than You
TTITLE2=We Go Together
TTITLE3=Virginia
TTITLE4=Lonesome End Of The Line
TTITLE5=Love Will Always Be There
TTITLE6=Candelighted World
TTITLE7=Safe In These Lovin' Arms Of Mine
TTITLE8=Singing The Blues
TTITLE9=Thank Goodness It's Forever
EXTD=
EXTT0=
EXTT1=
EXTT2=
EXTT3=
EXTT4=
EXTT5=
EXTT6=
EXTT7=
EXTT8=
EXTT9=
PLAYORDER=
